<?xml version="1.0" standalone="no"?><!DOCTYPE svg PUBLIC "-//W3C//DTD SVG 20010904//EN"><svg version="1.0" xmlns="http://www.w3.org/2000/svg" width="700.000000pt" height="700.000000pt" viewBox="0 0 700.000000 700.000000" preserveAspectRatio="xMidYMid meet"><metadata>Created by potrace 1.14, written by Peter Selinger 2001-2017</metadata><g transform="translate(0.000000,700.000000) scale(0.100000,-0.100000)" fill="#000000" stroke="none"><path d="M2005 6987 c-95 -32 -183 -106 -218 -182 l-18 -40 -312 1 c-233 1
-318 -2 -337 -12 -28 -13 -843 -824 -869 -864 -13 -20 -16 -62 -18 -270 0
-135 -2 -252 -2 -261 -1 -9 -19 -24 -41 -34 -56 -25 -124 -96 -157 -164 -25
-49 -28 -67 -27 -146 0 -80 4 -97 31 -150 34 -67 98 -131 165 -166 36 -20 58
-23 143 -24 90 0 106 3 157 28 60 30 138 106 162 161 44 95 44 214 1 301 -31
64 -100 135 -156 160 -27 12 -39 25 -40 39 0 12 -1 110 -2 220 l-2 198 374
374 c205 206 379 374 385 375 16 1 496 1 526 0 20 -1 29 -9 39 -36 17 -48 97
-127 162 -161 47 -24 66 -28 144 -28 83 -1 96 2 157 32 77 37 128 90 167 172
22 46 26 69 26 140 0 71 -4 94 -26 141 -58 124 -166 197 -300 205 -46 2 -89
-1 -114 -9z m158 -238 c47 -26 67 -108 37 -156 -49 -81 -170 -74 -205 11 -44
104 67 199 168 145z m-1735 -1649 c70 -69 34 -181 -63 -195 -49 -7 -82 9 -112
53 -52 77 5 171 104 172 33 0 48 -6 71 -30z"/><path d="M3053 6986 c-148 -48 -243 -170 -249 -319 -1 -39 4 -90 13 -119 l15
-51 -596 -596 c-328 -328 -597 -603 -598 -611 0 -8 -2 -272 -3 -587 l-2 -572
-99 -99 -99 -99 -55 17 c-80 25 -166 18 -243 -18 -79 -38 -129 -87 -168 -168
-41 -83 -45 -187 -10 -277 28 -71 105 -153 175 -186 131 -61 292 -33 395 69
91 90 127 235 87 352 l-16 46 124 124 c86 85 127 134 134 158 7 23 10 234 10
593 l-1 559 565 565 565 565 50 -15 c49 -15 152 -17 199 -4 80 21 175 100 215
179 28 55 33 80 33 168 1 60 -4 86 -26 131 -57 124 -165 197 -300 205 -45 2
-89 -1 -115 -10z m163 -243 c72 -47 61 -164 -19 -198 -61 -25 -122 -2 -150 58
-51 106 69 206 169 140z m-1866 -3033 c76 -54 58 -175 -30 -201 -48 -15 -80
-7 -119 30 -26 25 -31 36 -31 76 0 40 5 52 34 81 28 28 42 34 76 34 26 0 53
-8 70 -20z"/><path d="M4093 6982 c-181 -65 -282 -254 -228 -427 l18 -57 -705 -706 c-388
-389 -711 -717 -717 -729 -7 -14 -11 -95 -11 -220 l0 -199 -42 -19 c-53 -23
-132 -103 -157 -158 -86 -192 2 -404 197 -478 70 -26 194 -23 257 6 265 122
282 482 30 626 l-50 29 -1 159 0 160 681 681 682 682 51 -16 c160 -47 343 31
409 175 15 32 23 39 48 40 33 1 313 1 333 0 9 -1 12 -33 12 -125 0 -69 4 -135
9 -148 5 -13 118 -132 251 -265 189 -190 241 -247 235 -260 -29 -71 -34 -151
-15 -223 54 -206 295 -318 483 -226 268 131 269 501 3 631 -71 35 -164 43
-240 21 -39 -12 -62 -14 -70 -7 -6 6 -104 103 -217 216 l-206 205 0 160 c0
262 9 254 -323 257 -135 1 -254 2 -265 2 -13 1 -26 14 -37 39 -63 145 -263
228 -415 174z m175 -238 c51 -33 61 -110 21 -165 -60 -85 -202 -37 -203 69 0
96 101 149 182 96z m1518 -1050 c41 -27 57 -101 32 -147 -15 -29 -47 -57 -67
-58 -9 -1 -26 -3 -39 -4 -29 -3 -82 32 -100 65 -16 32 -9 96 15 122 41 46 107
55 159 22z m-3146 -1291 c80 -72 31 -203 -74 -203 -68 0 -129 79 -112 146 20
79 125 111 186 57z"/><path d="M5620 6986 c-94 -30 -184 -109 -224 -195 -31 -68 -30 -228 3 -290 81
-154 246 -230 407 -186 l64 17 449 -448 448 -449 -1 -477 -1 -478 -140 -140
-140 -140 -627 0 c-347 0 -637 -4 -650 -9 -13 -5 -178 -162 -365 -350 l-341
-341 -685 0 -685 0 -30 53 c-90 160 -280 222 -449 147 -61 -27 -137 -102 -169
-168 -25 -50 -29 -69 -29 -147 0 -78 4 -97 28 -147 88 -178 287 -251 462 -169
66 31 129 89 160 148 11 21 24 41 28 44 5 3 325 6 713 5 387 -1 718 3 735 7
23 6 127 103 375 351 l344 342 613 -1 c336 0 628 3 647 8 27 7 79 52 223 195
104 103 195 199 203 214 22 42 21 1106 -1 1151 -9 18 -226 243 -484 500 l-468
468 14 42 c75 216 -86 445 -317 452 -41 2 -91 -2 -110 -9z m136 -225 c16 -1
49 -32 64 -61 30 -56 2 -129 -59 -153 -54 -22 -95 -13 -135 32 -28 30 -28 111
-1 141 25 28 73 50 100 45 11 -2 25 -4 31 -4z m-2873 -3299 c50 -51 37 -146
-25 -178 -48 -25 -102 -18 -137 17 -17 17 -31 38 -32 47 0 9 -2 27 -5 38 -4
27 33 84 66 102 39 20 98 8 133 -26z"/><path d="M943 5932 c-153 -55 -238 -175 -238 -337 1 -66 6 -91 28 -140 31 -67
104 -141 164 -169 l38 -17 -1 -335 -1 -336 -215 -215 -216 -216 -46 16 c-30
10 -72 15 -119 13 -133 -5 -240 -74 -299 -194 -30 -60 -33 -76 -33 -152 0 -72
5 -94 28 -145 32 -68 109 -147 163 -167 19 -6 34 -19 35 -28 1 -8 2 -42 3 -75
2 -33 4 -71 4 -84 2 -16 136 -157 466 -487 l463 -464 0 -44 c0 -42 -2 -45 -41
-63 -61 -27 -141 -114 -167 -181 -32 -83 -31 -190 3 -264 33 -71 89 -133 154
-169 l51 -29 -1 -135 -1 -135 -43 -21 c-24 -12 -64 -43 -89 -69 -149 -155
-123 -406 56 -528 99 -68 227 -79 336 -29 130 60 206 177 206 318 0 126 -67
238 -178 301 l-53 30 0 136 1 137 37 17 c128 59 212 218 191 360 -16 107 -87
207 -182 258 l-47 25 0 77 c0 42 -4 87 -9 101 -5 13 -214 228 -465 479 -409
410 -455 459 -457 489 -3 58 0 65 36 78 51 18 132 102 161 166 34 74 41 153
20 235 l-17 64 244 245 c150 151 246 256 250 271 3 14 4 187 4 385 l-2 360 54
33 c74 44 117 91 149 160 22 47 26 71 27 142 0 71 -4 94 -26 141 -58 124 -168
199 -302 206 -53 3 -86 -1 -124 -15z m173 -237 c14 -9 32 -32 40 -52 30 -70
-21 -151 -97 -157 -65 -6 -114 36 -123 105 -11 94 99 157 180 104z m-721
-1739 c91 -38 93 -173 3 -211 -92 -38 -184 40 -158 134 11 43 35 68 76 81 40
12 41 12 79 -4z m951 -1877 c38 -23 61 -80 50 -124 -4 -15 -20 -40 -36 -56
-23 -24 -37 -29 -75 -29 -40 0 -52 5 -81 34 -98 98 24 248 142 175z m3 -936
c37 -28 52 -62 47 -106 -17 -142 -226 -130 -226 13 0 94 104 148 179 93z"/><path d="M4566 5934 c-92 -29 -176 -102 -212 -183 l-16 -36 -196 1 c-144 1
-204 -2 -223 -12 -29 -14 -491 -472 -517 -513 -15 -22 -17 -69 -19 -396 -1
-203 -2 -373 -2 -377 -1 -4 -22 -17 -47 -30 -56 -27 -123 -100 -153 -164 -76
-160 0 -371 163 -452 225 -113 492 44 502 294 3 75 -8 123 -43 189 -27 51 -97
116 -149 139 l-39 18 2 316 c0 174 2 326 2 338 1 20 352 383 395 408 18 10
161 13 303 7 15 -1 27 -12 38 -35 80 -167 294 -243 460 -161 266 130 265 504
-2 631 -72 34 -174 42 -247 18z m169 -240 c27 -17 50 -67 47 -102 -5 -57 -57
-104 -120 -108 -30 -1 -83 34 -100 66 -29 55 14 152 72 163 32 6 75 -2 101
-19z m-1160 -1524 c79 -74 31 -200 -75 -200 -54 0 -109 41 -111 84 -5 67 14
108 62 134 33 18 96 8 124 -18z"/><path d="M4187 5106 c-116 -48 -182 -129 -210 -253 -55 -243 172 -466 416
-409 100 23 190 93 236 184 l19 38 601 0 601 -1 29 -50 c107 -188 354 -237
522 -104 201 159 163 474 -71 587 -48 24 -67 27 -150 27 -80 0 -103 -4 -145
-25 -62 -30 -135 -101 -160 -157 l-20 -42 -606 -1 -605 0 -19 42 c-24 55 -90
120 -157 154 -78 40 -199 45 -281 10z m182 -220 c39 -21 61 -58 61 -107 0 -33
-6 -47 -34 -75 -28 -28 -42 -34 -76 -34 -76 0 -129 62 -116 135 14 75 98 115
165 81z m1885 -11 c30 -20 52 -82 42 -121 -12 -46 -61 -84 -111 -84 -124 0
-162 166 -50 217 36 16 84 11 119 -12z"/><path d="M5493 3716 c-175 -56 -277 -243 -228 -421 l17 -65 -215 -215 -215
-215 -335 0 -335 0 -30 53 c-134 237 -470 237 -604 0 l-30 -53 -601 0 -602 0
-23 44 c-121 227 -431 253 -587 49 -128 -167 -72 -417 116 -517 l44 -24 1
-836 0 -836 -42 -20 c-74 -36 -146 -120 -173 -202 -85 -258 154 -512 417 -444
76 19 127 50 180 111 61 69 85 141 80 240 -6 129 -65 225 -175 287 l-53 30 0
836 0 837 42 20 c54 26 128 100 151 151 l19 41 604 -1 604 -1 21 -42 c87 -175
323 -242 489 -138 50 32 108 94 127 138 9 20 19 38 22 38 3 1 173 3 376 4 284
1 376 5 395 15 14 7 132 120 263 251 l238 238 37 -16 c22 -9 67 -16 112 -16
64 -1 86 4 141 30 195 91 266 324 153 504 -33 53 -109 116 -167 137 -61 23
-175 27 -234 8z m157 -229 c38 -19 68 -71 64 -112 -6 -70 -62 -112 -135 -102
-107 14 -127 164 -28 214 31 16 67 16 99 0z m-3609 -704 c31 -19 59 -68 59
-105 0 -30 -33 -84 -61 -98 -39 -21 -109 -6 -141 29 -85 96 33 239 143 174z
m1881 -10 c83 -75 38 -203 -72 -203 -120 0 -157 161 -50 218 32 16 96 9 122
-15z m-1872 -2331 c36 -27 51 -62 46 -105 -5 -45 -28 -74 -72 -93 -99 -42
-196 75 -137 165 38 60 108 74 163 33z"/></g></svg>